<?xml version="1.0" encoding="utf-8"?>
<!-- Generator: Adobe Illustrator 20.0.0, SVG Export Plug-In . SVG Version: 6.00 Build 0)  -->
<svg version="1.1" id="Layer_1" xmlns="http://www.w3.org/2000/svg" xmlns:xlink="http://www.w3.org/1999/xlink" x="0px" y="0px"
	 viewBox="0 0 55 75" enable-background="new 0 0 55 75" xml:space="preserve">
<path fill="#FFFFFF" d="M54.5,75h-54C0.224,75,0,74.776,0,74.5v-74C0,0.224,0.224,0,0.5,0h40.125
	C46.239,5.614,49.386,8.761,55,14.375V74.5C55,74.776,54.776,75,54.5,75z"/>
<path fill="#141B23" d="M54.5,75h-54C0.224,75,0,74.776,0,74.5v-74C0,0.224,0.224,0,0.5,0h40.125
	C46.239,5.614,49.386,8.761,55,14.375V74.5C55,74.776,54.776,75,54.5,75z"/>
</svg>
