<?xml version="1.0" encoding="utf-8"?>
<!-- Generator: Adobe Illustrator 20.0.0, SVG Export Plug-In . SVG Version: 6.00 Build 0)  -->
<svg version="1.1" id="Layer_1" xmlns="http://www.w3.org/2000/svg" xmlns:xlink="http://www.w3.org/1999/xlink" x="0px" y="0px"
	 viewBox="0 0 449.04 81.472" enable-background="new 0 0 449.04 81.472" xml:space="preserve">
<g>
	<path fill="#070A0D" d="M138.311,70.791c26.804,6.791,54.841,10.479,83.709,10.681V51.477c-26.183-0.201-51.615-3.547-75.94-9.681
		L138.311,70.791z"/>
	<path fill="#070A0D" d="M315.566,69.525C365.303,56.159,410.668,32.122,449.04,0h-50.393
		c-27.633,17.957-58.212,31.758-90.849,40.536L315.566,69.525z"/>
	<path fill="#070A0D" d="M302.96,41.796c-24.325,6.134-49.756,9.48-75.94,9.681v29.995c28.868-0.202,56.905-3.89,83.709-10.681
		L302.96,41.796z"/>
	<path fill="#070A0D" d="M141.241,40.536C108.604,31.758,78.025,17.957,50.393,0H0c38.373,32.122,83.737,56.159,133.474,69.525
		L141.241,40.536z"/>
</g>
</svg>
