<?xml version="1.0" encoding="utf-8"?>
<!-- Generator: Adobe Illustrator 20.0.0, SVG Export Plug-In . SVG Version: 6.00 Build 0)  -->
<svg version="1.1" id="Layer_2" xmlns="http://www.w3.org/2000/svg" xmlns:xlink="http://www.w3.org/1999/xlink" x="0px" y="0px"
	 viewBox="0 0 4.1 1.5" style="enable-background:new 0 0 4.1 1.5;" xml:space="preserve">
<style type="text/css">
	.st0{fill:#F4B516;}
</style>
<path class="st0" d="M3.9,0.8H3.6v0h0.2c-0.1,0-0.2-0.1-0.2-0.2V0.4C3.6,0.2,3.5,0,3.3,0H0.9C0.7,0,0.5,0.2,0.5,0.4v0.2
	c0,0.1-0.1,0.2-0.2,0.2H0.2C0.1,0.8,0,0.9,0,1v0.4c0,0.1,0.1,0.2,0.2,0.2h3.8c0.1,0,0.2-0.1,0.2-0.2V1C4.1,0.9,4.1,0.8,3.9,0.8z"/>
</svg>
