<?xml version="1.0" encoding="utf-8"?>
<!-- Generator: Adobe Illustrator 20.0.0, SVG Export Plug-In . SVG Version: 6.00 Build 0)  -->
<svg version="1.1" xmlns="http://www.w3.org/2000/svg" xmlns:xlink="http://www.w3.org/1999/xlink" x="0px" y="0px"
	 viewBox="0 0 173.8 106.6" style="enable-background:new 0 0 173.8 106.6;" xml:space="preserve">
<style type="text/css">
	.st0{fill:#FEBF10;}
</style>
<g id="Layer_3">
</g>
<g id="Layer_2">
</g>
<g id="Layer_4">
</g>
<g id="Layer_1">
	<polygon class="st0" points="8.9,1 7.8,0.4 6,0 4.1,0.2 2.5,0.7 1.5,1.5 0.6,2.4 0.1,3.4 0,4 0,102.8 0.3,103.3 0.6,103.8 
		1.1,104.4 1.5,104.8 2.2,105.4 2.8,105.7 4.2,106.3 5.4,106.6 7.3,106.6 168.7,106.6 170.2,106.2 171.5,105.3 172.7,104.3 
		173.2,103.2 173.8,102.2 173.8,4.9 173.6,3.7 173.1,2.6 172.3,1.7 171.3,0.8 170.4,0.2 72.7,0 71.8,0.4 71.1,1 66.7,8.4 66.3,8.7 
		65.5,9.2 64.9,9.5 64,9.7 16.7,9.7 16.2,9.6 15.6,9.2 15,8.5 	"/>
</g>
</svg>
