<?xml version="1.0" encoding="utf-8"?>
<!-- Generator: Adobe Illustrator 20.0.0, SVG Export Plug-In . SVG Version: 6.00 Build 0)  -->
<svg version="1.1" id="Layer_1" xmlns="http://www.w3.org/2000/svg" xmlns:xlink="http://www.w3.org/1999/xlink" x="0px" y="0px"
	 viewBox="0 0 46 600" enable-background="new 0 0 46 600" xml:space="preserve">
<path fill="#18212B" d="M18.75,483c0-12.938,9.102-23.744,21.25-26.38v-69.24c-12.148-2.636-21.25-13.443-21.25-26.38
	s9.102-23.744,21.25-26.38v-69.24c-12.148-2.636-21.25-13.443-21.25-26.38s9.102-23.744,21.25-26.38v-69.24
	c-12.148-2.636-21.25-13.443-21.25-26.38c0-14.912,12.088-27,27-27V61.262c0-25.154-21-57.178-46-61.262h0v600h0
	c28-6.683,46-36.109,46-61.262V510C30.838,510,18.75,497.912,18.75,483z"/>
</svg>
